<svg width="45" height="48" viewBox="0 0 45 48" fill="none" xmlns="http://www.w3.org/2000/svg">
<path d="M36 30V27H39V30H42V33H45V36H42V39H39V36H36V33H33V30H36Z" fill="#D8982C"/>
<path d="M27 39V36H39V39H36V42H21V39H27Z" fill="#E64210"/>
<path d="M21 33V30H27V33H36V36H27V39H21V36H24V33H21Z" fill="#7B4B00"/>
<path d="M18 45V42H21V48H12V45H18Z" fill="#7B4B00"/>
<path d="M39 18H42V24H45V33H42V30H39V27H36V24H39V18Z" fill="#7B4B00"/>
<path d="M33 21H39V24H36V30H33V33H27V30H21V27H30V24H33V21Z" fill="#E64210"/>
<path d="M12 18V9H15V6H33V9H36V18H33V12H15V18H12Z" fill="#7B4B00"/>
<path d="M6 18V6H9V12H12V18H15V12H33V18H36V12H39V6H42V18H39V21H33V24H30V27H18V24H15V21H9V18H6Z" fill="#D8982C"/>
<path d="M15 3V0H33V3H36V9H33V6H15V9H12V3H15Z" fill="#E64210"/>
<rect x="18" y="15" width="3" height="3" fill="#7B4B00"/>
<rect x="21" y="33" width="3" height="3" fill="#E64210"/>
<rect x="18" y="30" width="3" height="12" fill="#D8982C"/>
<rect x="3" y="42" width="15" height="3" fill="#D8982C"/>
<rect x="27" y="42" width="9" height="3" fill="#E64210"/>
<rect x="27" y="15" width="3" height="3" fill="#7B4B00"/>
<rect x="18" y="12" width="3" height="3" fill="#213BE6"/>
<rect x="27" y="12" width="3" height="3" fill="#4111FF"/>
<path d="M9 24V21H15V24H9Z" fill="#E64210"/>
<rect x="21" y="21" width="6" height="3" fill="#7B4B00"/>
<path d="M18 27H21V30H18V42H0V27H3V24H18V27Z" fill="#7B4B00"/>
<path fill-rule="evenodd" clip-rule="evenodd" d="M7.48454 28.4628L5 29.9681L5.01031 33.0002L5.03093 36.0324L7.49485 37.5162C8.85568 38.3333 9.97937 39 10 39C10.0206 39 11.1443 38.3333 12.5052 37.5162L14.9691 36.0324L14.9897 33.0002L15 29.9681L12.5567 28.5058C11.2165 27.6994 10.0825 27.022 10.0412 27.0005C10 26.979 8.84536 27.6456 7.48454 28.4628ZM11.0103 29.8821C11.9278 30.2262 12.6392 30.9681 12.9794 31.9358C13.1443 32.4089 13.1753 33.2906 13.0516 33.7959C12.7629 34.9464 11.8866 35.8711 10.7938 36.1722C10.3918 36.2797 9.62887 36.2797 9.21649 36.1722C8.11339 35.8603 7.23711 34.9464 6.95876 33.8067C6.84536 33.3766 6.84536 32.6024 6.94846 32.1831C7.23711 31.0541 8.16494 30.0864 9.24743 29.7961C9.6701 29.6886 10.5979 29.7316 11.0103 29.8821Z" fill="#E64210"/>
</svg>
