<svg width="252" height="251" viewBox="0 0 252 251" fill="none" xmlns="http://www.w3.org/2000/svg">
<g clip-path="url(#clip0_6_2)">
<path fill-rule="evenodd" clip-rule="evenodd" d="M18.8626 -0.44339C8.59522 -0.44339 -0.113281 7.6856 -0.113281 17.6891V233.311C-0.113281 243.326 5.59657 251.443 15.864 251.443H230.525C240.805 251.443 251.773 243.326 251.773 233.311V17.6891C251.773 7.6856 243.803 -0.44339 233.524 -0.44339H18.8626ZM53.8625 31.0425C66.2889 31.0425 76.3524 41.1059 76.3524 53.5323C76.3524 65.9588 66.2889 76.0222 53.8625 76.0222C41.4361 76.0222 31.3726 65.9588 31.3726 53.5323C31.3726 41.1059 41.4361 31.0425 53.8625 31.0425ZM169.451 94.0142C205.687 94.0142 215.79 113.244 215.79 148.88V215.46H179.806V155.44C179.806 139.487 173.431 125.5 158.534 125.5C140.446 125.5 131.827 137.75 131.827 157.853V215.46H95.8436V95.5135H129.742V112.803H130.117C135.286 103.483 150.572 94.0142 169.451 94.0142ZM35.8705 95.5135H71.8544V215.46H35.8705V95.5135Z" fill="#0A66C2"/>
</g>
<defs>
<clipPath id="clip0_6_2">
<rect width="252" height="251" fill="white"/>
</clipPath>
</defs>
</svg>
