<svg width="1339" height="1539" viewBox="0 0 1339 1539" fill="none" xmlns="http://www.w3.org/2000/svg">
    <path d="M211.599 1438.34L1111.91 1443.6L1243.53 1385.69L1285.65 1359.36L1306.71 1338.3L1327.77 1311.98L1338.3 1296.18V1285.65V1259.33L1333.04 1238.27L1327.77 1222.47L1296.18 1154.03L1238.27 1048.73L1180.35 953.96L1111.91 853.925L1064.52 801.276L1006.61 774.951V738.096L1053.99 674.916L1064.52 643.326L1080.32 606.472L1085.58 559.087V501.172L1075.05 427.463L1048.73 348.488L1011.87 269.513L953.96 174.744L885.515 101.034L832.865 58.9147L780.216 27.3249L743.361 11.5299L706.506 1H617.002L553.822 22.0599L480.112 69.4446L401.138 148.419L337.958 232.659L285.308 337.958L264.249 401.138L248.454 459.052L243.189 511.702V569.617L253.719 622.266L274.778 669.651L316.898 732.831L353.753 774.951L306.368 790.746L264.249 811.805L206.334 874.985L153.684 953.96L64.1796 1106.64L32.5898 1180.35L1 1269.86V1311.98L11.5299 1338.3L32.5898 1359.36L79.9746 1390.95L143.154 1417.28L211.599 1438.34Z" fill="#DD0000" stroke="#535353"/>
    <path d="M211.599 1469.93V983.015L219.496 969.755L227.394 964.49H1096.11L1106.64 975.02L1111.91 980.285V1469.93L1106.64 1480.46L1096.11 1490.99H1085.58V1512.05H1106.64L1111.91 1517.31V1533.11L1106.64 1538.37H216.864L211.599 1530.47V1517.31L216.864 1512.05H237.923V1496.25V1490.99H227.394L216.864 1480.46L211.599 1469.93Z" fill="#4F4F4F" stroke="#575757"/>
    <path d="M237.924 1506.78V1490.99H243.189H1085.58V1506.78H237.924Z" fill="#650303" stroke="#4E0000"/>
    <path d="M364.283 490.642H353.753L343.223 464.317L337.958 427.463V380.078L359.018 369.548L395.873 359.018L453.787 343.223L506.437 332.693L574.882 322.163L622.266 316.898H711.771L764.421 322.163L848.66 332.693L917.105 348.488L964.49 364.283V474.847H948.695L938.165 522.232L932.9 564.352L911.84 653.856L874.985 711.771L853.925 738.096L832.865 759.156L806.54 774.951L780.216 785.481L764.421 838.13L743.361 874.985L732.831 880.25L701.241 885.515H653.856L632.796 880.25L590.677 864.455L574.882 817.07L559.087 785.481L543.292 780.216L516.967 769.686L480.112 743.361L453.787 717.036L443.257 701.241L432.727 685.446L401.138 617.002L369.548 495.907L364.283 490.642Z" fill="#E4CAB8" stroke="#E6C7B2"/>
    <path d="M663.882 1102H1111V1348.98L416.984 1353.84L392.273 1376H320.042C314.902 1374.59 303.779 1371.48 300.4 1370.3C297.021 1369.12 288.572 1366.99 284.771 1366.08L265.974 1358.69L250.344 1353.84L238.939 1348.98L233.237 1343.91L225 1335.05V1327.66L233.237 1312.04L244.642 1297.26L272.521 1272.56C283.996 1262.99 308.721 1244.66 313.283 1239.42C317.845 1234.19 334.826 1222.04 343.063 1217.68C355.665 1210.85 381.84 1196.36 385.726 1192.98C389.612 1189.6 401.003 1182.85 406.213 1179.89L453.945 1158.57L484.147 1144.64L559.758 1123.32L577.71 1117.62L618.684 1108.54L663.882 1102Z" fill="white"/>
    <path d="M518.807 1313V1240.27H527.188V1267.12H527.898C528.513 1266.17 529.366 1264.96 530.455 1263.5C531.567 1262.01 533.153 1260.68 535.213 1259.52C537.296 1258.34 540.114 1257.74 543.665 1257.74C548.258 1257.74 552.306 1258.89 555.81 1261.19C559.313 1263.49 562.048 1266.74 564.013 1270.95C565.978 1275.17 566.96 1280.14 566.96 1285.87C566.96 1291.65 565.978 1296.65 564.013 1300.89C562.048 1305.1 559.325 1308.37 555.845 1310.69C552.365 1312.99 548.352 1314.14 543.807 1314.14C540.303 1314.14 537.498 1313.56 535.391 1312.4C533.284 1311.21 531.662 1309.87 530.526 1308.38C529.389 1306.87 528.513 1305.61 527.898 1304.62H526.903V1313H518.807ZM527.045 1285.73C527.045 1289.85 527.649 1293.48 528.857 1296.63C530.064 1299.75 531.828 1302.2 534.148 1303.98C536.468 1305.73 539.309 1306.61 542.67 1306.61C546.174 1306.61 549.098 1305.68 551.442 1303.84C553.809 1301.97 555.585 1299.46 556.768 1296.31C557.976 1293.14 558.58 1289.61 558.58 1285.73C558.58 1281.89 557.988 1278.44 556.804 1275.36C555.644 1272.26 553.88 1269.81 551.513 1268.01C549.169 1266.18 546.222 1265.27 542.67 1265.27C539.261 1265.27 536.397 1266.14 534.077 1267.87C531.757 1269.57 530.005 1271.96 528.821 1275.04C527.637 1278.09 527.045 1281.66 527.045 1285.73ZM595.831 1314.28C592.375 1314.28 589.238 1313.63 586.42 1312.33C583.603 1311 581.366 1309.09 579.709 1306.61C578.052 1304.1 577.223 1301.07 577.223 1297.52C577.223 1294.39 577.839 1291.86 579.07 1289.92C580.301 1287.95 581.946 1286.41 584.006 1285.3C586.065 1284.19 588.338 1283.36 590.824 1282.82C593.333 1282.25 595.855 1281.8 598.388 1281.47C601.702 1281.04 604.389 1280.72 606.449 1280.51C608.532 1280.27 610.047 1279.88 610.994 1279.34C611.965 1278.79 612.45 1277.84 612.45 1276.49V1276.21C612.45 1272.71 611.491 1269.98 609.574 1268.04C607.68 1266.1 604.804 1265.13 600.945 1265.13C596.944 1265.13 593.807 1266.01 591.534 1267.76C589.261 1269.51 587.663 1271.38 586.74 1273.37L578.786 1270.53C580.206 1267.21 582.1 1264.63 584.467 1262.79C586.858 1260.92 589.463 1259.61 592.28 1258.88C595.121 1258.12 597.914 1257.74 600.661 1257.74C602.412 1257.74 604.425 1257.96 606.697 1258.38C608.994 1258.79 611.207 1259.63 613.338 1260.9C615.492 1262.18 617.28 1264.11 618.7 1266.69C620.121 1269.27 620.831 1272.73 620.831 1277.06V1313H612.45V1305.61H612.024C611.456 1306.8 610.509 1308.06 609.183 1309.41C607.857 1310.76 606.094 1311.91 603.892 1312.86C601.69 1313.8 599.003 1314.28 595.831 1314.28ZM597.109 1306.75C600.424 1306.75 603.217 1306.1 605.49 1304.8C607.786 1303.49 609.515 1301.81 610.675 1299.75C611.858 1297.69 612.45 1295.53 612.45 1293.26V1285.59C612.095 1286.01 611.314 1286.4 610.107 1286.76C608.923 1287.09 607.55 1287.38 605.987 1287.64C604.448 1287.88 602.945 1288.09 601.477 1288.28C600.033 1288.45 598.861 1288.59 597.962 1288.71C595.784 1288.99 593.748 1289.46 591.854 1290.1C589.983 1290.71 588.468 1291.65 587.308 1292.9C586.172 1294.13 585.604 1295.81 585.604 1297.94C585.604 1300.86 586.681 1303.06 588.835 1304.55C591.013 1306.02 593.771 1306.75 597.109 1306.75ZM644.508 1280.19V1313H636.127V1240.27H644.508V1266.98H645.218C646.497 1264.16 648.414 1261.92 650.971 1260.27C653.552 1258.58 656.984 1257.74 661.27 1257.74C664.986 1257.74 668.242 1258.49 671.035 1259.98C673.829 1261.45 675.995 1263.71 677.534 1266.76C679.096 1269.79 679.877 1273.65 679.877 1278.34V1313H671.497V1278.91C671.497 1274.58 670.372 1271.23 668.123 1268.86C665.898 1266.47 662.808 1265.27 658.855 1265.27C656.109 1265.27 653.646 1265.85 651.468 1267.01C649.314 1268.17 647.609 1269.87 646.355 1272.09C645.124 1274.32 644.508 1277.02 644.508 1280.19ZM703.59 1280.19V1313H695.21V1258.45H703.306V1266.98H704.016C705.295 1264.21 707.236 1261.98 709.84 1260.3C712.444 1258.6 715.806 1257.74 719.925 1257.74C723.619 1257.74 726.85 1258.5 729.62 1260.02C732.39 1261.51 734.544 1263.78 736.083 1266.84C737.622 1269.87 738.391 1273.7 738.391 1278.34V1313H730.011V1278.91C730.011 1274.62 728.898 1271.29 726.673 1268.89C724.447 1266.48 721.393 1265.27 717.511 1265.27C714.835 1265.27 712.444 1265.85 710.337 1267.01C708.254 1268.17 706.609 1269.87 705.401 1272.09C704.194 1274.32 703.59 1277.02 703.59 1280.19Z" fill="#9B9999"/>
    <path d="M759.814 1313.57C758.062 1313.57 756.558 1312.94 755.304 1311.69C754.049 1310.43 753.422 1308.93 753.422 1307.18C753.422 1305.42 754.049 1303.92 755.304 1302.67C756.558 1301.41 758.062 1300.78 759.814 1300.78C761.565 1300.78 763.069 1301.41 764.324 1302.67C765.578 1303.92 766.206 1305.42 766.206 1307.18C766.206 1308.34 765.91 1309.4 765.318 1310.37C764.75 1311.34 763.98 1312.12 763.01 1312.72C762.063 1313.28 760.997 1313.57 759.814 1313.57ZM801.841 1314.14C797.296 1314.14 793.283 1312.99 789.803 1310.69C786.323 1308.37 783.6 1305.1 781.635 1300.89C779.67 1296.65 778.688 1291.65 778.688 1285.87C778.688 1280.14 779.67 1275.17 781.635 1270.95C783.6 1266.74 786.335 1263.49 789.838 1261.19C793.342 1258.89 797.391 1257.74 801.983 1257.74C805.534 1257.74 808.34 1258.34 810.4 1259.52C812.483 1260.68 814.069 1262.01 815.158 1263.5C816.271 1264.96 817.135 1266.17 817.75 1267.12H818.461V1240.27H826.841V1313H818.745V1304.62H817.75C817.135 1305.61 816.259 1306.87 815.123 1308.38C813.986 1309.87 812.364 1311.21 810.257 1312.4C808.15 1313.56 805.345 1314.14 801.841 1314.14ZM802.978 1306.61C806.339 1306.61 809.18 1305.73 811.5 1303.98C813.82 1302.2 815.584 1299.75 816.792 1296.63C817.999 1293.48 818.603 1289.85 818.603 1285.73C818.603 1281.66 818.011 1278.09 816.827 1275.04C815.643 1271.96 813.891 1269.57 811.571 1267.87C809.251 1266.14 806.387 1265.27 802.978 1265.27C799.426 1265.27 796.467 1266.18 794.1 1268.01C791.756 1269.81 789.992 1272.26 788.809 1275.36C787.649 1278.44 787.069 1281.89 787.069 1285.73C787.069 1289.61 787.66 1293.14 788.844 1296.31C790.051 1299.46 791.827 1301.97 794.171 1303.84C796.538 1305.68 799.474 1306.61 802.978 1306.61ZM866.223 1314.14C860.968 1314.14 856.434 1312.98 852.623 1310.66C848.835 1308.31 845.911 1305.05 843.851 1300.86C841.815 1296.64 840.797 1291.74 840.797 1286.15C840.797 1280.57 841.815 1275.64 843.851 1271.38C845.911 1267.1 848.775 1263.76 852.445 1261.37C856.138 1258.95 860.447 1257.74 865.371 1257.74C868.212 1257.74 871.017 1258.22 873.787 1259.16C876.557 1260.11 879.078 1261.65 881.351 1263.78C883.624 1265.89 885.435 1268.68 886.784 1272.16C888.134 1275.64 888.809 1279.93 888.809 1285.02V1288.57H846.763V1281.32H880.286C880.286 1278.25 879.67 1275.5 878.439 1273.09C877.232 1270.67 875.504 1268.76 873.255 1267.37C871.029 1265.97 868.401 1265.27 865.371 1265.27C862.033 1265.27 859.145 1266.1 856.706 1267.76C854.292 1269.39 852.433 1271.52 851.131 1274.15C849.829 1276.78 849.178 1279.6 849.178 1282.6V1287.43C849.178 1291.55 849.888 1295.04 851.309 1297.91C852.753 1300.75 854.753 1302.91 857.31 1304.41C859.867 1305.87 862.838 1306.61 866.223 1306.61C868.425 1306.61 870.414 1306.3 872.189 1305.68C873.989 1305.05 875.539 1304.1 876.841 1302.84C878.143 1301.57 879.15 1299.98 879.86 1298.09L887.956 1300.36C887.104 1303.1 885.672 1305.52 883.659 1307.6C881.647 1309.66 879.161 1311.27 876.202 1312.43C873.243 1313.57 869.917 1314.14 866.223 1314.14ZM944.499 1258.45L924.329 1313H915.806L895.636 1258.45H904.727L919.783 1301.92H920.352L935.408 1258.45H944.499Z" fill="#1E3275"/>
    <path d="M251 1327.5L297 1306.5L346 1287.5L394 1273L427 1264L479 1262" stroke="#FF0000" stroke-width="30"/>
    <line x1="972" y1="1262" x2="1112" y2="1262" stroke="#FF0000" stroke-width="30"/>
    <path d="M1019.38 1147.33L1112 1149.02V1218.35H1024.01L1019.38 1147.33Z" fill="#282828"/>
    <path d="M824.883 1218.35V1145.85H684.271L545 1149.02L520.084 1151.33L475.5 1164L449.5 1174.5L424.939 1184.84L403 1196L368.5 1214.13L386.629 1239L424.939 1233.52L471.5 1225L517 1221.09H564.709L824.883 1218.35Z" fill="#282828"/>
    <path d="M938.13 1196.64L936.446 1151.33L932.657 1145.22L929.92 1141.53L927.394 1138.48L922.343 1135.32L918.343 1134.05L912.87 1133H903.819L895.188 1138.48L893.084 1141.53L890.979 1144.59L888.874 1149.02V1192.85L892.242 1200.65L894.136 1203.39L896.241 1206.13L901.293 1211.18L908.029 1214.13H922.343L927.394 1211.82L932.657 1208.02L936.446 1202.12L938.13 1196.64Z" fill="#282828"/>
    <path d="M1019.38 1147.33L1112 1149.02V1218.35H1024.01L1019.38 1147.33Z" stroke="black"/>
    <path d="M824.883 1218.35V1145.85H684.271L545 1149.02L520.084 1151.33L475.5 1164L449.5 1174.5L424.939 1184.84L403 1196L368.5 1214.13L386.629 1239L424.939 1233.52L471.5 1225L517 1221.09H564.709L824.883 1218.35Z" stroke="black"/>
    <path d="M938.13 1196.64L936.446 1151.33L932.657 1145.22L929.92 1141.53L927.394 1138.48L922.343 1135.32L918.343 1134.05L912.87 1133H903.819L895.188 1138.48L893.084 1141.53L890.979 1144.59L888.874 1149.02V1192.85L892.242 1200.65L894.136 1203.39L896.241 1206.13L901.293 1211.18L908.029 1214.13H922.343L927.394 1211.82L932.657 1208.02L936.446 1202.12L938.13 1196.64Z" stroke="black"/>
</svg>