
<svg width="1068" height="924" viewBox="0 0 1068 924" fill="none" xmlns="http://www.w3.org/2000/svg">
<g id="MAP">
<path id="SIDEWALK" d="M478.192 268.311C475.692 256.811 486.192 250.311 493.192 254.311L543.192 304.811C515.147 326.404 501.03 340.093 478.692 367.311C481.397 380.719 482.989 389.05 486.192 407.811L487.692 422.811L449.692 459.811L532.192 564.811C564.26 544.608 583.018 535.632 618.192 524.811C635.136 471.899 649.372 450.121 681.692 422.811C652.711 356.174 634.955 318.398 600.692 250.311L594.192 128.811C539.102 128.383 506.24 132.15 443.192 139.811C409.33 144.439 390.389 145.803 356.692 145.811C229.2 138.199 169.916 120.296 77.1917 73.8105C46.5319 54.9122 30.094 41.9173 1.69166 15.8105C0.191652 4.81055 7.69166 -0.689448 16.1917 2.31053C40.2467 22.8781 52.7843 33.2303 67.1917 41.8105C175.447 101.99 243.758 124.44 392.692 124.311C442.438 117.408 469.426 114.707 515.692 112.311C622.014 106.336 681.143 105.73 785.692 109.811C848.772 114.493 882.658 118.708 940.692 128.811C949.692 137.311 945.692 149.811 933.192 149.811C814.666 131.014 745.205 126.525 616.192 128.811L621.192 248.311C657.455 312.335 675.613 350.68 704.692 422.811C706.674 427.265 707.032 429.628 704.692 433.311C667.588 460.394 652.303 482.056 639.192 537.311C637.209 540.87 635.242 542.65 629.692 545.311C602.873 550.712 588.23 557.066 562.692 573.311L673.692 735.811L730.192 702.311C741.692 700.811 747.692 708.811 741.692 720.311L674.692 760.311C670.696 762.523 668.081 762.215 662.692 758.811L542.192 584.811L384.692 699.811C378.255 708.252 375.069 713.492 372.692 726.811L370.192 757.311C362.001 779.122 354.226 787.621 335.692 797.311L293.692 810.311C276.505 820.554 269.549 829.339 262.692 851.311L257.692 881.311C250.69 905.758 240.711 914.09 213.192 920.311L100.192 922.311C91.6917 916.311 91.1917 907.311 100.192 900.811L213.192 899.311C225.247 895.115 231.402 891.801 236.692 876.811L244.192 836.811C252.762 815.005 260.09 805.707 277.692 794.311L327.692 776.811C340.238 768.9 346.368 762.578 350.192 748.311C351.742 713.29 356.398 698.539 375.192 679.311L512.692 576.311L424.192 463.311C421.427 459.38 421.595 457.19 425.192 453.311L464.692 414.311C462.901 400.497 461.77 392.024 456.692 359.311C475.629 335.076 487.225 322.475 510.192 302.311L478.192 268.311Z" fill="#D9D9D9" stroke="#3B57A6" stroke-width="3"/>
<path id="ARCADE_AREA" d="M495.692 362.311C517.25 338.2 520.692 332.311 542.192 313.811C555.038 303.037 561.45 301.3 569.192 318.311L582.692 353.811C585.179 366.444 584.896 372.279 579.192 378.811L555.692 395.311C550.878 402.7 550.549 406.865 551.692 414.311L558.192 426.311C561.97 435.997 562.744 440.968 558.192 447.811C538.533 466.118 524.279 472.074 499.692 483.811C492.603 485.636 488.484 485.863 480.692 483.811C475.373 478.612 473.856 475.5 472.192 469.811C470.613 461.842 470.823 458.161 472.192 452.311L482.692 440.811L495.692 426.311C498.565 419.399 499.535 415.129 497.692 405.311L493.192 391.811C489.636 379.374 489.955 372.869 495.692 362.311Z" fill="#F5BCB5"/>
<path id="ARCADE_AREA (Stroke)" d="M550.01 306.267C552.662 304.787 555.219 303.94 557.73 304.147C560.29 304.359 562.547 305.644 564.619 307.902C566.666 310.133 568.595 313.38 570.557 317.689L570.577 317.733L570.594 317.777L584.094 353.277L584.139 353.396L584.163 353.521C585.409 359.851 586.006 364.671 585.502 368.781C584.987 372.98 583.338 376.344 580.321 379.798L580.202 379.934L580.054 380.038L556.795 396.368C554.551 399.851 553.414 402.491 552.933 405.065C552.45 407.647 552.604 410.284 553.137 413.83L559.511 425.596L559.555 425.678L559.589 425.765C561.48 430.615 562.71 434.492 562.815 438.084C562.923 441.768 561.849 445.022 559.44 448.641L559.343 448.788L559.214 448.908C539.36 467.397 524.894 473.442 500.338 485.164L500.207 485.227L500.065 485.263C496.472 486.189 493.536 486.734 490.471 486.764C487.401 486.794 484.282 486.308 480.31 485.261L479.927 485.16L479.644 484.883C476.93 482.231 475.12 480.048 473.776 477.753C472.433 475.457 471.597 473.119 470.752 470.231L470.733 470.168L470.721 470.102C469.921 466.067 469.559 463.043 469.587 460.252C469.615 457.451 470.034 454.948 470.731 451.968L470.82 451.588L471.084 451.3L481.584 439.8L494.4 425.504C495.765 422.199 496.632 419.609 496.971 416.725C497.315 413.793 497.126 410.461 496.235 405.686L491.769 392.285L491.749 392.222C489.954 385.942 489.089 381.004 489.462 376.239C489.837 371.453 491.449 366.978 494.374 361.594L494.457 361.441L494.573 361.31C516.078 337.261 519.616 331.257 541.213 312.674L541.221 312.668L541.228 312.661C544.456 309.954 547.353 307.751 550.01 306.267ZM557.482 307.136C555.816 306.999 553.878 307.543 551.473 308.886C549.075 310.225 546.358 312.274 543.169 314.947L543.17 314.948C521.808 333.329 518.433 339.117 496.932 363.172C494.172 368.277 492.78 372.297 492.453 376.473C492.122 380.705 492.872 385.233 494.628 391.38L499.114 404.837L499.147 404.933L499.166 405.034C500.103 410.024 500.346 413.711 499.95 417.076C499.554 420.442 498.53 423.39 497.077 426.886L496.979 427.122L496.809 427.312L483.809 441.812L483.8 441.822L473.566 453.029C472.95 455.723 472.61 457.897 472.586 460.281C472.561 462.772 472.88 465.556 473.65 469.457C474.462 472.224 475.214 474.271 476.365 476.237C477.484 478.147 479.02 480.046 481.461 482.46C485.087 483.393 487.823 483.791 490.44 483.765C493.12 483.739 495.753 483.269 499.183 482.391C523.66 470.71 537.675 464.83 557.033 446.837C559.107 443.678 559.901 441.061 559.816 438.171C559.728 435.16 558.691 431.73 556.823 426.933L550.373 415.025L550.248 414.796L550.209 414.538C549.63 410.767 549.395 407.662 549.983 404.513C550.574 401.354 551.968 398.279 554.435 394.492L554.593 394.25L554.83 394.083L578.173 377.692C580.786 374.664 582.1 371.876 582.524 368.416C582.963 364.839 582.466 360.458 581.242 354.218L567.813 318.903C565.908 314.723 564.138 311.817 562.408 309.93C560.699 308.067 559.098 307.27 557.482 307.136Z" fill="#EE3923"/>
<path id="HOUSE" d="M222.692 771.311L224.692 701.311L271.192 702.311L269.692 772.311L222.692 771.311Z" fill="#D9D9D9"/>
<path id="HOUSE_2" d="M286.692 770.811L288.759 713.811L325.192 714.627L324.192 771.811L286.692 770.811Z" fill="#D9D9D9"/>
<path id="HOUSE_3" d="M305.192 672.5L306.963 597.811L338.192 598.881L337.334 673.811L305.192 672.5Z" fill="#D9D9D9"/>
<path id="HOUSE_4" d="M499.572 503.376L560.874 458.239L579.492 484.09L518.567 530.114L499.572 503.376Z" fill="#D9D9D9"/>
<path id="HOUSE_5" d="M354.972 641.1L357.75 552.496L394.172 554.058L392.458 642.956L354.972 641.1Z" fill="#D9D9D9"/>
<path id="GRAS" d="M702.692 763.311C701.566 759.624 702.655 757.81 706.192 754.811L738.192 743.811L763.192 731.811C772.624 726.061 774.036 731.302 774.192 745.811C768.415 770.648 762.421 780.112 750.692 795.311C745.253 800.558 742.021 801.979 735.692 799.811L702.692 763.311Z" fill="#1DB16B"/>
<path id="GRAS_2" d="M661.192 818.311L659.192 787.311C659.662 783.554 660.921 781.812 666.192 779.811C671.691 779.284 674.626 779.712 679.692 781.311C698.852 788.226 706.609 795.55 714.192 815.811L716.192 833.311C713.842 842.55 711.075 847.159 704.692 854.811C691.428 865.132 683.309 869.702 667.692 875.811C661.89 877.628 658.32 877.751 651.192 875.811C646.547 870.95 644.664 868.216 643.192 863.311C641.425 857.839 641.566 854.875 644.192 849.811L653.692 835.811C657.908 829.748 659.563 825.924 661.192 818.311Z" fill="#1DB16B"/>
<path id="GRAS_3" d="M336.192 810.811C348.632 804.007 354.926 799.207 364.192 787.811C368.761 783.871 370.557 784.16 372.192 789.811C372.424 807.711 372.628 817.47 374.192 830.311C375.939 838.453 377.186 843.298 381.192 853.811C381.177 864.228 379.013 868.222 372.192 872.811C358.036 881.055 349.323 883.531 333.192 886.311C318.215 889.297 310.566 889.493 297.192 889.311C287.683 886.455 283.384 882.867 279.692 868.811C278.661 858.231 278.962 852.527 283.192 843.311C289.607 829.534 295.423 823.725 312.692 819.311C323.349 817.586 328.685 815.931 336.192 810.811Z" fill="#1DB16B"/>
<path id="GRAS_4" d="M368.192 521.311C367.547 508.148 369.672 502.567 377.192 495.311C386.753 484.669 392.417 479.87 403.692 475.811C416.015 473.025 420.315 475.186 425.692 482.311C433.996 502.707 438.707 511.52 447.192 522.811L483.192 560.811C487.064 567.309 487.876 570.5 485.192 574.811L434.692 613.811C430.519 616.54 428.293 616.163 424.692 609.311L418.192 573.811C410.742 551.259 405.178 542.025 391.692 534.311C380.481 531.647 374.423 529.885 368.192 521.311Z" fill="#1DB16B"/>
<path id="GRAS_5" d="M651.692 179.811C650.886 152.666 655.91 146.209 671.192 144.811C678.929 143.456 685.642 144.132 704.192 149.311C721.008 156.104 729.601 158.53 743.692 160.811C768.266 164.073 782.065 164.533 806.692 164.311L856.692 158.311C880.765 155.743 889.994 156.097 902.692 158.311C926.192 164.311 926.692 214.311 893.692 224.811C871.546 227.105 859.583 226.435 838.692 223.311C802.192 217.852 783.279 210.648 757.692 211.811C742.612 220.776 739.034 229.159 741.692 250.311C745.086 257.556 747.852 260.588 754.192 264.311C769.017 267.464 776.088 270.02 785.192 276.811C793.366 285.563 796.608 290.305 798.692 298.311C801.823 308.041 801.36 312.914 793.692 319.811C757.523 326.171 737.319 329.941 697.692 326.811C690.486 322.42 688.486 318.519 686.692 310.311C684.993 288.935 682.517 277.534 675.192 258.311C661.654 227.422 656.185 210.217 651.692 179.811Z" fill="#1DB16B"/>
<path id="GRAS_6" d="M531.692 144.311C539.247 143.498 550.489 143.579 550.192 144.311C558.394 146.945 561.914 150.529 565.692 161.811V169.811C563.213 184.915 559.614 190.928 550.192 198.311C544.551 201.831 540.591 203.237 525.192 199.811L497.192 196.311C479.747 196.498 473.277 199.247 463.192 205.311L425.692 236.811C404.514 254.838 387.859 260.661 351.192 264.811H321.192C307.914 266.568 302.192 264.811 287.192 269.311C272.192 273.811 268.253 281.279 260.192 292.811C244.831 317.322 241.32 332.989 242.692 363.811C248.673 400.797 260.906 413.116 305.692 413.311L337.192 409.311C349.452 406.733 356.495 406.522 369.692 410.811C374.428 413.81 376.827 416.244 380.692 421.811C383.622 425.038 384.793 428.392 383.692 444.811C376.804 474.926 366.752 487.673 341.192 505.311C325.863 509.755 317.222 513.115 301.692 521.311C279.125 539.223 271.77 556.155 266.692 596.811C266.713 621.617 266.352 635.523 261.692 660.311C256.893 669.075 252.88 669.959 242.692 662.311C228.97 643.524 220.716 634.382 204.692 621.311C191.451 611 182.698 607.933 165.692 605.311L114.692 607.311C99.9944 603.796 96.2478 597.648 93.1917 583.311L81.6917 458.311C84.0881 444.928 86.7558 437.67 94.6917 425.311L123.692 391.311C129.878 377.575 129.349 370.334 120.692 358.311C112.068 349.155 99.6679 339.66 64.6917 315.311C46.3508 300.599 39.961 290.219 35.6917 267.811L38.6917 207.811C48.2875 162.563 58.6917 141.811 97.6917 143.311C147.975 157.029 175.663 163.353 224.192 172.311C288.187 178.924 328.049 178.58 405.692 171.311C450.114 163.495 477.943 157.446 531.692 144.311Z" fill="#1DB16B"/>
<g id="LOKSCHUPPEN">
<path id="MAIN_STAGE" d="M656.192 605.811L760.192 604.811C762.09 578.341 768.539 564.738 784.692 542.811L710.692 469.811C671.192 513.311 658.192 551.811 656.192 605.811Z" fill="#3B57A6"/>
<path id="FOOD_COURT" d="M936.692 418.311L896.192 514.311C919.48 523.811 930.345 533.379 946.692 556.311L1031.69 496.811C1004.71 457.312 983.897 440.136 936.692 418.311Z" fill="#3B57A6"/>
<path id="AREA_OTHER" d="M1062.19 642.811L960.192 625.811C954.998 646.495 949.483 657.127 936.192 674.811L998.692 759.811C1035.95 721.974 1050.62 696.841 1062.19 642.811Z" fill="#3B57A6"/>
<path id="INNOVATION_STAGE_WORKSHOP_SPONSOR" d="M712.192 468.81L785.692 541.31C809.192 514.81 842.691 499.31 894.691 513.81L935.192 417.81C855.692 387.311 762.192 409.811 712.192 468.81Z" fill="#3B57A6"/>
<path id="CLOAKROOM" d="M663.692 663.811C657.688 643.208 656.398 629.963 656.192 606.811L760.192 605.811C760.319 614.706 759.837 620.486 761.192 628.811L663.692 663.811Z" fill="#3B57A6"/>
<path id="AREA_TOILET" d="M687.192 716.811C675.135 696.736 670.109 685.357 664.192 664.811L761.692 629.811C764.214 640.243 767.145 646.254 772.192 656.311L687.192 716.811Z" fill="#3B57A6"/>
<path id="FOCUS_PLATTFORM" d="M991.692 526.311C1014.18 559.776 1019.4 583.426 1013.19 632.811L960.192 624.811C962.742 596.091 959.082 581.433 947.192 557.811L991.692 526.311Z" fill="#3B57A6"/>
<path id="PLATFORM_3" d="M1032.69 497.811C1062.88 548.17 1069.65 579.493 1062.19 641.311L1014.19 632.811C1019.99 584.947 1015.68 561.396 993.192 525.811L1032.69 497.811Z" fill="#3B57A6"/>
</g>
<g id="YELLOW_STAGE">
<path id="RIGHT_INNER" d="M311.192 324.811L312.192 341.811H303.192V318.811L311.192 324.811Z" fill="#FBA906"/>
<path id="LEFT_INNER" d="M291.192 324.811L290.192 341.811H299.192V318.811L291.192 324.811Z" fill="#FBA906"/>
<path id="LEFT_OUTER" d="M270.192 341.811V324.811H287.192L286.192 341.811H270.192Z" fill="#FBA906"/>
<path id="RIGHT_OUTER" d="M331.192 341.811V324.811H314.192L315.192 341.811H331.192Z" fill="#FBA906"/>
<path id="roof" d="M301.192 296.811L270.192 321.811H289.192L301.192 313.811L312.192 321.811H331.192L301.192 296.811Z" fill="#FBA906"/>
</g>
<g id="GREEN_STAGE">
<path id="RIGHT_INNER_2" d="M317.831 382.322L318.749 397.811H310.487V376.855L317.831 382.322Z" fill="#1DB16B"/>
<path id="LEFT_INNER_2" d="M299.47 382.322L298.552 397.811H306.815V376.855L299.47 382.322Z" fill="#1DB16B"/>
<path id="LEFT_OUTER_2" d="M280.192 397.811V382.322H295.798L294.88 397.811H280.192Z" fill="#1DB16B"/>
<path id="RIGHT_OUTER_2" d="M336.192 397.811V382.322H320.585L321.503 397.811H336.192Z" fill="#1DB16B"/>
<path id="roof_2" d="M308.651 356.811L280.192 379.588H297.634L308.651 372.299L318.749 379.588H336.192L308.651 356.811Z" fill="#1DB16B"/>
</g>
<g id="TECH_LEADERS_LOUNGE">
<path id="RIGHT_INNER_3" d="M629.831 785.322L630.749 800.811H622.487V779.855L629.831 785.322Z" fill="#737374"/>
<path id="LEFT_INNER_3" d="M611.47 785.322L610.552 800.811H618.815V779.855L611.47 785.322Z" fill="#737374"/>
<path id="LEFT_OUTER_3" d="M592.192 800.811V785.322H607.798L606.88 800.811H592.192Z" fill="#737374"/>
<path id="RIGHT_OUTER_3" d="M648.192 800.811V785.322H632.585L633.503 800.811H648.192Z" fill="#737374"/>
<path id="roof_3" d="M620.651 759.811L592.192 782.588H609.634L620.651 775.299L630.749 782.588H648.192L620.651 759.811Z" fill="#737374"/>
</g>
<g id="TELEKOM_STAGE">
<path id="RIGHT_INNER_4" d="M445.831 332.322L446.749 347.811H438.487V326.855L445.831 332.322Z" fill="#E81F8C"/>
<path id="LEFT_INNER_4" d="M427.47 332.322L426.552 347.811H434.815V326.855L427.47 332.322Z" fill="#E81F8C"/>
<path id="LEFT_OUTER_4" d="M408.192 347.811V332.322H423.798L422.88 347.811H408.192Z" fill="#E81F8C"/>
<path id="RIGHT_OUTER_4" d="M464.192 347.811V332.322H448.585L449.503 347.811H464.192Z" fill="#E81F8C"/>
<path id="roof_4" d="M436.651 306.811L408.192 329.588H425.634L436.651 322.299L446.749 329.588H464.192L436.651 306.811Z" fill="#E81F8C"/>
</g>
<g id="PODCAST_STAGE">
<path id="RIGHT_INNER_5" d="M601.487 372.699L602.372 387.811H594.405V367.366L601.487 372.699Z" fill="#ED1C24"/>
<path id="LEFT_INNER_5" d="M583.782 372.699L582.897 387.811H590.864V367.366L583.782 372.699Z" fill="#ED1C24"/>
<path id="LEFT_OUTER_5" d="M565.192 387.811V372.699H580.241L579.356 387.811H565.192Z" fill="#ED1C24"/>
<path id="RIGHT_OUTER_5" d="M619.192 387.811V372.699H604.142L605.028 387.811H619.192Z" fill="#ED1C24"/>
<path id="roof_5" d="M592.634 347.811L565.192 370.033H582.011L592.634 362.922L602.372 370.033H619.192L592.634 347.811Z" fill="#ED1C24"/>
</g>
<g id="PURPLE_STAGE">
<path id="RIGHT_INNER_6" d="M382.192 297.811L383.192 314.811H374.192V291.811L382.192 297.811Z" fill="#7D5EA8"/>
<path id="LEFT_INNER_6" d="M362.192 297.811L361.192 314.811H370.192V291.811L362.192 297.811Z" fill="#7D5EA8"/>
<path id="LEFT_OUTER_6" d="M341.192 314.811V297.811H358.192L357.192 314.811H341.192Z" fill="#7D5EA8"/>
<path id="RIGHT_OUTER_6" d="M402.192 314.811V297.811H385.192L386.192 314.811H402.192Z" fill="#7D5EA8"/>
<path id="roof_6" d="M372.192 269.811L341.192 294.811H360.192L372.192 286.811L383.192 294.811H402.192L372.192 269.811Z" fill="#7D5EA8"/>
</g>
<g id="Group 4">
<g id="TRACK">
<path id="Rectangle 1 (Stroke)" d="M821.665 538.348L855.836 588.879L848.381 593.921L814.21 543.39L821.665 538.348ZM848.649 592.532L854.448 588.611L821.397 539.737L815.599 543.658L848.649 592.532Z" fill="#3B3B3B"/>
<path id="Rectangle 2 (Stroke)" d="M825.003 539.713L827.243 543.026L816.475 550.309L814.234 546.995L825.003 539.713ZM816.743 548.92L825.855 542.758L824.735 541.102L815.622 547.263L816.743 548.92Z" fill="#3B3B3B"/>
<path id="Rectangle 3 (Stroke)" d="M828.924 545.512L831.165 548.825L820.396 556.107L818.155 552.794L828.924 545.512ZM820.664 554.719L829.776 548.557L828.656 546.9L819.544 553.062L820.664 554.719Z" fill="#3B3B3B"/>
<path id="Rectangle 4 (Stroke)" d="M832.285 550.482L834.526 553.795L823.757 561.078L821.516 557.764L832.285 550.482ZM824.025 559.689L833.137 553.527L832.017 551.87L822.905 558.032L824.025 559.689Z" fill="#3B3B3B"/>
<path id="Rectangle 5 (Stroke)" d="M836.206 556.28L838.447 559.594L827.678 566.876L825.437 563.563L836.206 556.28ZM827.946 565.488L837.058 559.326L835.938 557.669L826.826 563.831L827.946 565.488Z" fill="#3B3B3B"/>
<path id="Rectangle 6 (Stroke)" d="M839.567 561.251L841.808 564.564L831.039 571.846L828.798 568.533L839.567 561.251ZM831.307 570.458L840.419 564.296L839.299 562.639L830.187 568.801L831.307 570.458Z" fill="#3B3B3B"/>
<path id="Rectangle 7 (Stroke)" d="M843.489 567.049L845.729 570.363L834.96 577.645L832.72 574.332L843.489 567.049ZM835.229 576.257L844.341 570.095L843.22 568.438L834.108 574.6L835.229 576.257Z" fill="#3B3B3B"/>
<path id="Rectangle 8 (Stroke)" d="M846.85 572.02L849.09 575.333L838.321 582.615L836.081 579.302L846.85 572.02ZM838.59 581.227L847.702 575.065L846.581 573.408L837.469 579.57L838.59 581.227Z" fill="#3B3B3B"/>
<path id="Rectangle 9 (Stroke)" d="M850.771 577.818L853.012 581.132L842.243 588.414L840.002 585.1L850.771 577.818ZM842.511 587.025L851.623 580.863L850.503 579.207L841.391 585.369L842.511 587.025Z" fill="#3B3B3B"/>
</g>
<g id="TRACK_2">
<path id="Rectangle 1 (Stroke)_2" d="M910.173 669.231L876.003 618.7L868.547 623.742L902.718 674.273L910.173 669.231ZM869.936 624.01L875.734 620.089L908.785 668.963L902.986 672.884L869.936 624.01Z" fill="#3B3B3B"/>
<path id="Rectangle 2 (Stroke)_2" d="M910.149 665.626L907.909 662.312L897.14 669.595L899.381 672.908L910.149 665.626ZM898.528 669.863L907.641 663.701L908.761 665.358L899.649 671.52L898.528 669.863Z" fill="#3B3B3B"/>
<path id="Rectangle 3 (Stroke)_2" d="M906.228 659.827L903.988 656.514L893.219 663.796L895.459 667.109L906.228 659.827ZM894.607 664.064L903.719 657.902L904.84 659.559L895.728 665.721L894.607 664.064Z" fill="#3B3B3B"/>
<path id="Rectangle 4 (Stroke)_2" d="M902.867 654.857L900.626 651.543L889.858 658.826L892.098 662.139L902.867 654.857ZM891.246 659.094L900.358 652.932L901.479 654.589L892.367 660.751L891.246 659.094Z" fill="#3B3B3B"/>
<path id="Rectangle 5 (Stroke)_2" d="M898.946 649.058L896.705 645.745L885.936 653.027L888.177 656.341L898.946 649.058ZM887.325 653.295L896.437 647.133L897.557 648.79L888.445 654.952L887.325 653.295Z" fill="#3B3B3B"/>
<path id="Rectangle 6 (Stroke)_2" d="M895.585 644.088L893.344 640.775L882.575 648.057L884.816 651.37L895.585 644.088ZM883.964 648.325L893.076 642.163L894.196 643.82L885.084 649.982L883.964 648.325Z" fill="#3B3B3B"/>
<path id="Rectangle 7 (Stroke)_2" d="M891.664 638.289L889.423 634.976L878.654 642.258L880.895 645.572L891.664 638.289ZM880.043 642.526L889.155 636.365L890.275 638.021L881.163 644.183L880.043 642.526Z" fill="#3B3B3B"/>
<path id="Rectangle 8 (Stroke)_2" d="M888.303 633.319L886.062 630.006L875.293 637.288L877.534 640.602L888.303 633.319ZM876.682 637.556L885.794 631.394L886.914 633.051L877.802 639.213L876.682 637.556Z" fill="#3B3B3B"/>
<path id="Rectangle 9 (Stroke)_2" d="M884.381 627.521L882.141 624.207L871.372 631.489L873.613 634.803L884.381 627.521ZM872.76 631.758L881.873 625.596L882.993 627.252L873.881 633.414L872.76 631.758Z" fill="#3B3B3B"/>
</g>
</g>
<g id="Group 3">
<g id="TRACK_3">
<path id="Rectangle 1 (Stroke)_3" d="M794.35 565.583L848.35 593.955L844.164 601.922L790.164 573.55L794.35 565.583ZM843.744 600.572L847 594.375L794.77 566.933L791.514 573.13L843.744 600.572Z" fill="#3B3B3B"/>
<path id="Rectangle 2 (Stroke)_3" d="M797.936 565.208L801.477 567.068L795.43 578.576L791.889 576.716L797.936 565.208ZM795.01 577.226L800.127 567.488L798.356 566.558L793.24 576.296L795.01 577.226Z" fill="#3B3B3B"/>
<path id="Rectangle 3 (Stroke)_3" d="M804.133 568.463L807.674 570.324L801.627 581.832L798.086 579.972L804.133 568.463ZM801.207 580.482L806.323 570.744L804.553 569.814L799.437 579.552L801.207 580.482Z" fill="#3B3B3B"/>
<path id="Rectangle 4 (Stroke)_3" d="M809.444 571.254L812.985 573.115L806.939 584.623L803.398 582.762L809.444 571.254ZM806.519 583.272L811.635 573.535L809.864 572.604L804.748 582.342L806.519 583.272Z" fill="#3B3B3B"/>
<path id="Rectangle 5 (Stroke)_3" d="M815.641 574.51L819.182 576.37L813.135 587.879L809.594 586.018L815.641 574.51ZM812.715 586.528L817.832 576.79L816.061 575.86L810.945 585.598L812.715 586.528Z" fill="#3B3B3B"/>
<path id="Rectangle 6 (Stroke)_3" d="M820.952 577.301L824.493 579.161L818.447 590.669L814.906 588.809L820.952 577.301ZM818.027 589.319L823.143 579.581L821.373 578.651L816.256 588.389L818.027 589.319Z" fill="#3B3B3B"/>
<path id="Rectangle 7 (Stroke)_3" d="M827.149 580.556L830.69 582.417L824.644 593.925L821.103 592.065L827.149 580.556ZM824.224 592.575L829.34 582.837L827.569 581.907L822.453 591.645L824.224 592.575Z" fill="#3B3B3B"/>
<path id="Rectangle 8 (Stroke)_3" d="M832.461 583.347L836.002 585.208L829.955 596.716L826.414 594.855L832.461 583.347ZM829.535 595.365L834.651 585.628L832.881 584.697L827.765 594.435L829.535 595.365Z" fill="#3B3B3B"/>
<path id="Rectangle 9 (Stroke)_3" d="M838.657 586.603L842.198 588.463L836.152 599.972L832.611 598.111L838.657 586.603ZM835.732 598.621L840.848 588.884L839.078 587.953L833.961 597.691L835.732 598.621Z" fill="#3B3B3B"/>
</g>
<g id="TRACK_4">
<path id="Rectangle 1 (Stroke)_4" d="M934.219 639.071L880.219 610.699L876.033 618.666L930.033 647.038L934.219 639.071ZM877.383 618.246L880.639 612.049L932.869 639.491L929.613 645.688L877.383 618.246Z" fill="#3B3B3B"/>
<path id="Rectangle 2 (Stroke)_4" d="M932.494 635.905L928.953 634.045L922.906 645.553L926.447 647.414L932.494 635.905ZM924.257 645.133L929.373 635.395L931.143 636.325L926.027 646.063L924.257 645.133Z" fill="#3B3B3B"/>
<path id="Rectangle 3 (Stroke)_4" d="M926.297 632.649L922.756 630.789L916.71 642.297L920.251 644.158L926.297 632.649ZM918.06 641.877L923.176 632.139L924.947 633.07L919.83 642.807L918.06 641.877Z" fill="#3B3B3B"/>
<path id="Rectangle 4 (Stroke)_4" d="M920.986 629.859L917.445 627.998L911.398 639.507L914.939 641.367L920.986 629.859ZM912.748 639.086L917.865 629.349L919.635 630.279L914.519 640.017L912.748 639.086Z" fill="#3B3B3B"/>
<path id="Rectangle 5 (Stroke)_4" d="M914.789 626.603L911.248 624.742L905.201 636.251L908.742 638.111L914.789 626.603ZM906.552 635.831L911.668 626.093L913.439 627.023L908.322 636.761L906.552 635.831Z" fill="#3B3B3B"/>
<path id="Rectangle 6 (Stroke)_4" d="M909.477 623.812L905.936 621.952L899.89 633.46L903.431 635.321L909.477 623.812ZM901.24 633.04L906.356 623.302L908.127 624.232L903.011 633.97L901.24 633.04Z" fill="#3B3B3B"/>
<path id="Rectangle 7 (Stroke)_4" d="M903.281 620.556L899.74 618.696L893.693 630.204L897.234 632.065L903.281 620.556ZM895.043 629.784L900.16 620.046L901.93 620.977L896.814 630.714L895.043 629.784Z" fill="#3B3B3B"/>
<path id="Rectangle 8 (Stroke)_4" d="M897.969 617.766L894.428 615.905L888.382 627.414L891.923 629.274L897.969 617.766ZM889.732 626.993L894.848 617.256L896.619 618.186L891.502 627.924L889.732 626.993Z" fill="#3B3B3B"/>
<path id="Rectangle 9 (Stroke)_4" d="M891.772 614.51L888.231 612.649L882.185 624.158L885.726 626.018L891.772 614.51ZM883.535 623.738L888.652 614L890.422 614.93L885.306 624.668L883.535 623.738Z" fill="#3B3B3B"/>
</g>
</g>
<g id="Group 6">
<g id="TRACK_5">
<path id="Rectangle 1 (Stroke)_5" d="M909.871 543.161L875.943 593.855L868.464 588.849L902.392 538.155L909.871 543.161ZM869.851 588.574L875.668 592.467L908.484 543.436L902.667 539.542L869.851 588.574Z" fill="#3B3B3B"/>
<path id="Rectangle 2 (Stroke)_5" d="M909.865 546.766L907.64 550.09L896.836 542.86L899.061 539.536L909.865 546.766ZM898.224 542.585L907.365 548.703L908.477 547.041L899.336 540.923L898.224 542.585Z" fill="#3B3B3B"/>
<path id="Rectangle 3 (Stroke)_5" d="M905.971 552.584L903.746 555.908L892.943 548.677L895.168 545.353L905.971 552.584ZM894.33 548.402L903.472 554.52L904.584 552.858L895.443 546.74L894.33 548.402Z" fill="#3B3B3B"/>
<path id="Rectangle 4 (Stroke)_5" d="M902.634 557.57L900.409 560.894L889.606 553.663L891.83 550.339L902.634 557.57ZM890.993 553.389L900.134 559.507L901.247 557.845L892.105 551.726L890.993 553.389Z" fill="#3B3B3B"/>
<path id="Rectangle 5 (Stroke)_5" d="M898.741 563.387L896.516 566.711L885.712 559.481L887.937 556.157L898.741 563.387ZM887.1 559.206L896.241 565.324L897.353 563.662L888.212 557.544L887.1 559.206Z" fill="#3B3B3B"/>
<path id="Rectangle 6 (Stroke)_5" d="M895.403 568.373L893.179 571.698L882.375 564.467L884.6 561.143L895.403 568.373ZM883.762 564.192L892.904 570.31L894.016 568.648L884.875 562.53L883.762 564.192Z" fill="#3B3B3B"/>
<path id="Rectangle 7 (Stroke)_5" d="M891.51 574.191L889.285 577.515L878.482 570.284L880.706 566.96L891.51 574.191ZM879.869 570.01L889.01 576.128L890.123 574.466L880.981 568.347L879.869 570.01Z" fill="#3B3B3B"/>
<path id="Rectangle 8 (Stroke)_5" d="M888.173 579.177L885.948 582.501L875.144 575.271L877.369 571.946L888.173 579.177ZM876.532 574.996L885.673 581.114L886.786 579.452L877.644 573.334L876.532 574.996Z" fill="#3B3B3B"/>
<path id="Rectangle 9 (Stroke)_5" d="M884.279 584.994L882.055 588.319L871.251 581.088L873.476 577.764L884.279 584.994ZM872.638 580.813L881.78 586.931L882.892 585.269L873.751 579.151L872.638 580.813Z" fill="#3B3B3B"/>
</g>
<g id="TRACK_6">
<path id="Rectangle 1 (Stroke)_6" d="M821.992 674.466L855.92 623.772L848.44 618.767L814.512 669.46L821.992 674.466ZM848.715 620.154L854.533 624.047L821.717 673.079L815.899 669.186L848.715 620.154Z" fill="#3B3B3B"/>
<path id="Rectangle 2 (Stroke)_6" d="M825.322 673.086L827.547 669.761L816.743 662.531L814.519 665.855L825.322 673.086ZM817.018 663.918L826.16 670.036L825.047 671.698L815.906 665.58L817.018 663.918Z" fill="#3B3B3B"/>
<path id="Rectangle 3 (Stroke)_6" d="M829.216 667.268L831.44 663.944L820.637 656.713L818.412 660.038L829.216 667.268ZM820.912 658.101L830.053 664.219L828.941 665.881L819.799 659.763L820.912 658.101Z" fill="#3B3B3B"/>
<path id="Rectangle 4 (Stroke)_6" d="M832.553 662.282L834.778 658.958L823.974 651.727L821.749 655.051L832.553 662.282ZM824.249 653.114L833.39 659.233L832.278 660.895L823.136 654.776L824.249 653.114Z" fill="#3B3B3B"/>
<path id="Rectangle 5 (Stroke)_6" d="M836.446 656.465L838.671 653.14L827.867 645.91L825.643 649.234L836.446 656.465ZM828.142 647.297L837.284 653.415L836.171 655.077L827.03 648.959L828.142 647.297Z" fill="#3B3B3B"/>
<path id="Rectangle 6 (Stroke)_6" d="M839.783 651.478L842.008 648.154L831.205 640.923L828.98 644.248L839.783 651.478ZM831.479 642.311L840.621 648.429L839.509 650.091L830.367 643.973L831.479 642.311Z" fill="#3B3B3B"/>
<path id="Rectangle 7 (Stroke)_6" d="M843.677 645.661L845.902 642.337L835.098 635.106L832.873 638.43L843.677 645.661ZM835.373 636.493L844.514 642.612L843.402 644.274L834.26 638.155L835.373 636.493Z" fill="#3B3B3B"/>
<path id="Rectangle 8 (Stroke)_6" d="M847.014 640.675L849.239 637.35L838.435 630.12L836.21 633.444L847.014 640.675ZM838.71 631.507L847.852 637.625L846.739 639.287L837.598 633.169L838.71 631.507Z" fill="#3B3B3B"/>
<path id="Rectangle 9 (Stroke)_6" d="M850.907 634.857L853.132 631.533L842.329 624.303L840.104 627.627L850.907 634.857ZM842.603 625.69L851.745 631.808L850.633 633.47L841.491 627.352L842.603 625.69Z" fill="#3B3B3B"/>
</g>
</g>
<g id="Group 5">
<g id="TRACK_7">
<path id="Rectangle 1 (Stroke)_7" d="M934.131 573.356L880.207 601.873L876 593.918L929.923 565.4L934.131 573.356ZM877.351 594.334L880.624 600.522L932.779 572.939L929.507 566.751L877.351 594.334Z" fill="#3B3B3B"/>
<path id="Rectangle 2 (Stroke)_7" d="M932.414 576.526L928.878 578.396L922.8 566.904L926.336 565.034L932.414 576.526ZM924.152 567.321L929.294 577.045L931.062 576.11L925.92 566.386L924.152 567.321Z" fill="#3B3B3B"/>
<path id="Rectangle 3 (Stroke)_7" d="M926.226 579.799L922.69 581.669L916.612 570.177L920.148 568.307L926.226 579.799ZM917.964 570.593L923.106 580.317L924.874 579.382L919.732 569.658L917.964 570.593Z" fill="#3B3B3B"/>
<path id="Rectangle 4 (Stroke)_7" d="M920.922 582.604L917.386 584.474L911.308 572.982L914.844 571.112L920.922 582.604ZM912.66 573.398L917.802 583.122L919.57 582.187L914.428 572.463L912.66 573.398Z" fill="#3B3B3B"/>
<path id="Rectangle 5 (Stroke)_7" d="M914.734 585.876L911.198 587.746L905.12 576.254L908.656 574.384L914.734 585.876ZM906.472 576.671L911.614 586.395L913.382 585.46L908.24 575.736L906.472 576.671Z" fill="#3B3B3B"/>
<path id="Rectangle 6 (Stroke)_7" d="M909.43 588.681L905.894 590.551L899.816 579.059L903.352 577.189L909.43 588.681ZM901.168 579.476L906.31 589.2L908.078 588.265L902.936 578.541L901.168 579.476Z" fill="#3B3B3B"/>
<path id="Rectangle 7 (Stroke)_7" d="M903.242 591.954L899.706 593.824L893.629 582.332L897.164 580.462L903.242 591.954ZM894.98 582.748L900.123 592.472L901.891 591.537L896.748 581.813L894.98 582.748Z" fill="#3B3B3B"/>
<path id="Rectangle 8 (Stroke)_7" d="M897.938 594.759L894.402 596.629L888.325 585.137L891.861 583.267L897.938 594.759ZM889.676 585.553L894.819 595.277L896.587 594.342L891.444 584.618L889.676 585.553Z" fill="#3B3B3B"/>
<path id="Rectangle 9 (Stroke)_7" d="M891.75 598.031L888.214 599.901L882.137 588.41L885.673 586.539L891.75 598.031ZM883.488 588.826L888.631 598.55L890.399 597.615L885.256 587.891L883.488 588.826Z" fill="#3B3B3B"/>
</g>
<g id="TRACK_8">
<path id="Rectangle 1 (Stroke)_8" d="M794.46 647.221L848.384 618.704L844.176 610.748L790.253 639.265L794.46 647.221ZM843.76 612.099L847.032 618.287L794.877 645.87L791.604 639.682L843.76 612.099Z" fill="#3B3B3B"/>
<path id="Rectangle 2 (Stroke)_8" d="M798.047 647.587L801.583 645.717L795.506 634.225L791.97 636.095L798.047 647.587ZM795.089 635.576L800.232 645.3L798.464 646.235L793.321 636.511L795.089 635.576Z" fill="#3B3B3B"/>
<path id="Rectangle 3 (Stroke)_8" d="M804.235 644.314L807.771 642.444L801.693 630.952L798.157 632.822L804.235 644.314ZM801.277 632.304L806.419 642.028L804.652 642.963L799.509 633.239L801.277 632.304Z" fill="#3B3B3B"/>
<path id="Rectangle 4 (Stroke)_8" d="M809.539 641.509L813.075 639.639L806.997 628.147L803.461 630.017L809.539 641.509ZM806.581 629.499L811.723 639.223L809.955 640.158L804.813 630.434L806.581 629.499Z" fill="#3B3B3B"/>
<path id="Rectangle 5 (Stroke)_8" d="M815.727 638.237L819.263 636.367L813.185 624.875L809.649 626.745L815.727 638.237ZM812.769 626.226L817.911 635.95L816.143 636.885L811.001 627.161L812.769 626.226Z" fill="#3B3B3B"/>
<path id="Rectangle 6 (Stroke)_8" d="M821.031 635.432L824.567 633.562L818.489 622.07L814.953 623.94L821.031 635.432ZM818.073 623.421L823.215 633.145L821.447 634.08L816.305 624.356L818.073 623.421Z" fill="#3B3B3B"/>
<path id="Rectangle 7 (Stroke)_8" d="M827.219 632.159L830.755 630.289L824.677 618.797L821.141 620.667L827.219 632.159ZM824.261 620.149L829.403 629.873L827.635 630.808L822.493 621.084L824.261 620.149Z" fill="#3B3B3B"/>
<path id="Rectangle 8 (Stroke)_8" d="M832.523 629.354L836.059 627.484L829.981 615.992L826.445 617.862L832.523 629.354ZM829.565 617.344L834.707 627.068L832.939 628.003L827.797 618.279L829.565 617.344Z" fill="#3B3B3B"/>
<path id="Rectangle 9 (Stroke)_8" d="M838.711 626.082L842.247 624.212L836.169 612.72L832.633 614.59L838.711 626.082ZM835.753 614.071L840.895 623.795L839.127 624.73L833.985 615.006L835.753 614.071Z" fill="#3B3B3B"/>
</g>
</g>
<g id="Group 2">
<g id="TRACK_9">
<path id="Rectangle 1 (Stroke)_9" d="M941.192 610.811H880.192V601.811H941.192V610.811ZM881.192 602.811V609.811H940.192V602.811H881.192Z" fill="#3B3B3B"/>
<path id="Rectangle 2 (Stroke)_9" d="M938.192 612.811H934.192V599.811H938.192V612.811ZM935.192 600.811V611.811H937.192V600.811H935.192Z" fill="#3B3B3B"/>
<path id="Rectangle 3 (Stroke)_9" d="M931.192 612.811H927.192V599.811H931.192V612.811ZM928.192 600.811V611.811H930.192V600.811H928.192Z" fill="#3B3B3B"/>
<path id="Rectangle 4 (Stroke)_9" d="M925.192 612.811H921.192V599.811H925.192V612.811ZM922.192 600.811V611.811H924.192V600.811H922.192Z" fill="#3B3B3B"/>
<path id="Rectangle 5 (Stroke)_9" d="M918.192 612.811H914.192V599.811H918.192V612.811ZM915.192 600.811V611.811H917.192V600.811H915.192Z" fill="#3B3B3B"/>
<path id="Rectangle 6 (Stroke)_9" d="M912.192 612.811H908.192V599.811H912.192V612.811ZM909.192 600.811V611.811H911.192V600.811H909.192Z" fill="#3B3B3B"/>
<path id="Rectangle 7 (Stroke)_9" d="M905.192 612.811H901.192V599.811H905.192V612.811ZM902.192 600.811V611.811H904.192V600.811H902.192Z" fill="#3B3B3B"/>
<path id="Rectangle 8 (Stroke)_9" d="M899.192 612.811H895.192V599.811H899.192V612.811ZM896.192 600.811V611.811H898.192V600.811H896.192Z" fill="#3B3B3B"/>
<path id="Rectangle 9 (Stroke)_9" d="M892.192 612.811H888.192V599.811H892.192V612.811ZM889.192 600.811V611.811H891.192V600.811H889.192Z" fill="#3B3B3B"/>
</g>
<g id="TRACK_10">
<path id="Rectangle 1 (Stroke)_10" d="M783.192 610.811H844.192V601.811H783.192V610.811ZM843.192 602.811V609.811H784.192V602.811H843.192Z" fill="#3B3B3B"/>
<path id="Rectangle 2 (Stroke)_10" d="M786.192 612.811H790.192V599.811H786.192V612.811ZM789.192 600.811V611.811H787.192V600.811H789.192Z" fill="#3B3B3B"/>
<path id="Rectangle 3 (Stroke)_10" d="M793.192 612.811H797.192V599.811H793.192V612.811ZM796.192 600.811V611.811H794.192V600.811H796.192Z" fill="#3B3B3B"/>
<path id="Rectangle 4 (Stroke)_10" d="M799.192 612.811H803.192V599.811H799.192V612.811ZM802.192 600.811V611.811H800.192V600.811H802.192Z" fill="#3B3B3B"/>
<path id="Rectangle 5 (Stroke)_10" d="M806.192 612.811H810.192V599.811H806.192V612.811ZM809.192 600.811V611.811H807.192V600.811H809.192Z" fill="#3B3B3B"/>
<path id="Rectangle 6 (Stroke)_10" d="M812.192 612.811H816.192V599.811H812.192V612.811ZM815.192 600.811V611.811H813.192V600.811H815.192Z" fill="#3B3B3B"/>
<path id="Rectangle 7 (Stroke)_10" d="M819.192 612.811H823.192V599.811H819.192V612.811ZM822.192 600.811V611.811H820.192V600.811H822.192Z" fill="#3B3B3B"/>
<path id="Rectangle 8 (Stroke)_10" d="M825.192 612.811H829.192V599.811H825.192V612.811ZM828.192 600.811V611.811H826.192V600.811H828.192Z" fill="#3B3B3B"/>
<path id="Rectangle 9 (Stroke)_10" d="M832.192 612.811H836.192V599.811H832.192V612.811ZM835.192 600.811V611.811H833.192V600.811H835.192Z" fill="#3B3B3B"/>
</g>
</g>
<g id="Group 1">
<g id="TRACK_11">
<path id="Rectangle 1 (Stroke)_11" d="M866.192 527.811V588.811H857.192V527.811H866.192ZM858.192 587.811H865.192V528.811H858.192V587.811Z" fill="#3B3B3B"/>
<path id="Rectangle 2 (Stroke)_11" d="M868.192 530.811V534.811H855.192V530.811H868.192ZM856.192 533.811H867.192V531.811H856.192V533.811Z" fill="#3B3B3B"/>
<path id="Rectangle 3 (Stroke)_11" d="M868.192 537.811V541.811H855.192V537.811H868.192ZM856.192 540.811H867.192V538.811H856.192V540.811Z" fill="#3B3B3B"/>
<path id="Rectangle 4 (Stroke)_11" d="M868.192 543.811V547.811H855.192V543.811H868.192ZM856.192 546.811H867.192V544.811H856.192V546.811Z" fill="#3B3B3B"/>
<path id="Rectangle 5 (Stroke)_11" d="M868.192 550.811V554.811H855.192V550.811H868.192ZM856.192 553.811H867.192V551.811H856.192V553.811Z" fill="#3B3B3B"/>
<path id="Rectangle 6 (Stroke)_11" d="M868.192 556.811V560.811H855.192V556.811H868.192ZM856.192 559.811H867.192V557.811H856.192V559.811Z" fill="#3B3B3B"/>
<path id="Rectangle 7 (Stroke)_11" d="M868.192 563.811V567.811H855.192V563.811H868.192ZM856.192 566.811H867.192V564.811H856.192V566.811Z" fill="#3B3B3B"/>
<path id="Rectangle 8 (Stroke)_11" d="M868.192 569.811V573.811H855.192V569.811H868.192ZM856.192 572.811H867.192V570.811H856.192V572.811Z" fill="#3B3B3B"/>
<path id="Rectangle 9 (Stroke)_11" d="M868.192 576.811V580.811H855.192V576.811H868.192ZM856.192 579.811H867.192V577.811H856.192V579.811Z" fill="#3B3B3B"/>
</g>
<g id="TRACK_12">
<path id="Rectangle 1 (Stroke)_12" d="M488.015 653.167L498.892 713.19L490.036 714.794L479.16 654.772L488.015 653.167ZM490.842 713.632L497.73 712.384L487.21 654.329L480.322 655.578L490.842 713.632Z" fill="#3B3B3B"/>
<path id="Rectangle 2 (Stroke)_12" d="M490.518 655.762L491.231 659.698L478.44 662.016L477.727 658.08L490.518 655.762ZM479.245 660.854L490.069 658.893L489.713 656.925L478.889 658.886L479.245 660.854Z" fill="#3B3B3B"/>
<path id="Rectangle 3 (Stroke)_12" d="M491.766 662.65L492.48 666.586L479.688 668.904L478.975 664.968L491.766 662.65ZM480.494 667.742L491.317 665.781L490.961 663.813L480.137 665.774L480.494 667.742Z" fill="#3B3B3B"/>
<path id="Rectangle 4 (Stroke)_12" d="M492.836 668.554L493.549 672.49L480.758 674.808L480.044 670.872L492.836 668.554ZM481.563 673.646L492.387 671.684L492.03 669.716L481.207 671.678L481.563 673.646Z" fill="#3B3B3B"/>
<path id="Rectangle 5 (Stroke)_12" d="M494.084 675.442L494.797 679.378L482.006 681.696L481.293 677.76L494.084 675.442ZM482.811 680.534L493.635 678.572L493.279 676.604L482.455 678.566L482.811 680.534Z" fill="#3B3B3B"/>
<path id="Rectangle 6 (Stroke)_12" d="M495.154 681.346L495.867 685.282L483.076 687.6L482.362 683.664L495.154 681.346ZM483.881 686.437L494.705 684.476L494.348 682.508L483.525 684.469L483.881 686.437Z" fill="#3B3B3B"/>
<path id="Rectangle 7 (Stroke)_12" d="M496.402 688.234L497.115 692.17L484.324 694.487L483.611 690.552L496.402 688.234ZM485.129 693.325L495.953 691.364L495.597 689.396L484.773 691.357L485.129 693.325Z" fill="#3B3B3B"/>
<path id="Rectangle 8 (Stroke)_12" d="M497.472 694.137L498.185 698.073L485.394 700.391L484.68 696.455L497.472 694.137ZM486.199 699.229L497.023 697.268L496.666 695.3L485.843 697.261L486.199 699.229Z" fill="#3B3B3B"/>
<path id="Rectangle 9 (Stroke)_12" d="M498.72 701.025L499.433 704.961L486.642 707.279L485.928 703.343L498.72 701.025ZM487.447 706.117L498.271 704.156L497.915 702.188L487.091 704.149L487.447 706.117Z" fill="#3B3B3B"/>
</g>
<g id="TRACK_13">
<path id="Rectangle 1 (Stroke)_13" d="M522.917 656.527L507.851 715.638L499.13 713.415L514.196 654.304L522.917 656.527ZM500.346 712.693L507.129 714.422L521.701 657.249L514.918 655.52L500.346 712.693Z" fill="#3B3B3B"/>
<path id="Rectangle 2 (Stroke)_13" d="M524.114 659.928L523.126 663.804L510.529 660.594L511.517 656.718L524.114 659.928ZM511.745 659.872L522.404 662.588L522.898 660.65L512.239 657.934L511.745 659.872Z" fill="#3B3B3B"/>
<path id="Rectangle 3 (Stroke)_13" d="M522.385 666.712L521.397 670.588L508.8 667.377L509.788 663.501L522.385 666.712ZM510.016 666.655L520.675 669.372L521.169 667.434L510.51 664.717L510.016 666.655Z" fill="#3B3B3B"/>
<path id="Rectangle 4 (Stroke)_13" d="M520.903 672.526L519.915 676.402L507.318 673.191L508.306 669.315L520.903 672.526ZM508.534 672.469L519.193 675.186L519.687 673.248L509.028 670.531L508.534 672.469Z" fill="#3B3B3B"/>
<path id="Rectangle 5 (Stroke)_13" d="M519.174 679.309L518.186 683.185L505.589 679.974L506.577 676.098L519.174 679.309ZM506.805 679.252L517.464 681.969L517.958 680.031L507.299 677.314L506.805 679.252Z" fill="#3B3B3B"/>
<path id="Rectangle 6 (Stroke)_13" d="M517.692 685.123L516.704 688.999L504.107 685.788L505.095 681.912L517.692 685.123ZM505.323 685.066L515.982 687.783L516.476 685.845L505.817 683.128L505.323 685.066Z" fill="#3B3B3B"/>
<path id="Rectangle 7 (Stroke)_13" d="M515.963 691.906L514.976 695.782L502.378 692.571L503.366 688.695L515.963 691.906ZM503.594 691.849L514.254 694.566L514.747 692.628L504.088 689.911L503.594 691.849Z" fill="#3B3B3B"/>
<path id="Rectangle 8 (Stroke)_13" d="M514.482 697.72L513.494 701.596L500.896 698.385L501.884 694.509L514.482 697.72ZM502.112 697.663L512.772 700.38L513.266 698.442L502.606 695.725L502.112 697.663Z" fill="#3B3B3B"/>
<path id="Rectangle 9 (Stroke)_13" d="M512.753 704.503L511.765 708.379L499.167 705.169L500.155 701.292L512.753 704.503ZM500.383 704.446L511.043 707.163L511.537 705.225L500.877 702.508L500.383 704.446Z" fill="#3B3B3B"/>
</g>
<g id="TRACK_14">
<path id="Rectangle 1 (Stroke)_14" d="M457.433 663.895L490.52 715.142L482.959 720.024L449.872 668.777L457.433 663.895ZM483.257 718.641L489.138 714.844L457.135 665.278L451.254 669.075L483.257 718.641Z" fill="#3B3B3B"/>
<path id="Rectangle 2 (Stroke)_14" d="M460.74 665.331L462.91 668.691L451.989 675.743L449.819 672.382L460.74 665.331ZM452.286 674.36L461.527 668.394L460.443 666.713L451.201 672.68L452.286 674.36Z" fill="#3B3B3B"/>
<path id="Rectangle 3 (Stroke)_14" d="M464.537 671.212L466.707 674.572L455.785 681.623L453.616 678.263L464.537 671.212ZM456.083 680.241L465.324 674.274L464.24 672.594L454.998 678.561L456.083 680.241Z" fill="#3B3B3B"/>
<path id="Rectangle 4 (Stroke)_14" d="M467.792 676.252L469.961 679.613L459.04 686.664L456.87 683.304L467.792 676.252ZM459.338 685.282L468.579 679.315L467.494 677.635L458.253 683.601L459.338 685.282Z" fill="#3B3B3B"/>
<path id="Rectangle 5 (Stroke)_14" d="M471.589 682.133L473.758 685.494L462.837 692.545L460.667 689.184L471.589 682.133ZM463.135 691.162L472.376 685.196L471.291 683.516L462.05 689.482L463.135 691.162Z" fill="#3B3B3B"/>
<path id="Rectangle 6 (Stroke)_14" d="M474.843 687.174L477.013 690.534L466.091 697.586L463.922 694.225L474.843 687.174ZM466.389 696.203L475.63 690.236L474.545 688.556L465.304 694.523L466.389 696.203Z" fill="#3B3B3B"/>
<path id="Rectangle 7 (Stroke)_14" d="M478.64 693.055L480.81 696.415L469.888 703.466L467.719 700.106L478.64 693.055ZM470.186 702.084L479.427 696.117L478.342 694.437L469.101 700.404L470.186 702.084Z" fill="#3B3B3B"/>
<path id="Rectangle 8 (Stroke)_14" d="M481.894 698.095L484.064 701.456L473.143 708.507L470.973 705.147L481.894 698.095ZM473.44 707.124L482.682 701.158L481.597 699.478L472.356 705.444L473.44 707.124Z" fill="#3B3B3B"/>
<path id="Rectangle 9 (Stroke)_14" d="M485.691 703.976L487.861 707.336L476.94 714.388L474.77 711.027L485.691 703.976ZM477.237 713.005L486.479 707.039L485.394 705.358L476.152 711.325L477.237 713.005Z" fill="#3B3B3B"/>
</g>
<g id="TRACK_15">
<path id="Rectangle 1 (Stroke)_15" d="M431.808 688.53L484.259 719.673L479.664 727.412L427.213 696.269L431.808 688.53ZM479.314 726.041L482.888 720.022L432.157 689.901L428.583 695.92L479.314 726.041Z" fill="#3B3B3B"/>
<path id="Rectangle 2 (Stroke)_15" d="M435.408 688.342L438.848 690.384L432.211 701.562L428.771 699.52L435.408 688.342ZM431.861 700.192L437.477 690.734L435.758 689.713L430.142 699.171L431.861 700.192Z" fill="#3B3B3B"/>
<path id="Rectangle 3 (Stroke)_15" d="M441.427 691.916L444.867 693.958L438.23 705.136L434.79 703.094L441.427 691.916ZM437.88 703.766L443.496 694.307L441.777 693.286L436.161 702.745L437.88 703.766Z" fill="#3B3B3B"/>
<path id="Rectangle 4 (Stroke)_15" d="M446.586 694.979L450.026 697.021L443.389 708.199L439.949 706.157L446.586 694.979ZM443.039 706.829L448.655 697.371L446.936 696.35L441.32 705.808L443.039 706.829Z" fill="#3B3B3B"/>
<path id="Rectangle 5 (Stroke)_15" d="M452.605 698.553L456.045 700.595L449.408 711.773L445.968 709.731L452.605 698.553ZM449.058 710.403L454.674 700.944L452.955 699.923L447.339 709.382L449.058 710.403Z" fill="#3B3B3B"/>
<path id="Rectangle 6 (Stroke)_15" d="M457.764 701.616L461.204 703.658L454.567 714.836L451.127 712.794L457.764 701.616ZM454.217 713.466L459.833 704.008L458.114 702.987L452.498 712.445L454.217 713.466Z" fill="#3B3B3B"/>
<path id="Rectangle 7 (Stroke)_15" d="M463.783 705.19L467.223 707.232L460.586 718.41L457.146 716.368L463.783 705.19ZM460.236 717.04L465.852 707.581L464.133 706.56L458.517 716.019L460.236 717.04Z" fill="#3B3B3B"/>
<path id="Rectangle 8 (Stroke)_15" d="M468.943 708.253L472.382 710.295L465.745 721.473L462.305 719.431L468.943 708.253ZM465.396 720.103L471.012 710.645L469.292 709.624L463.676 719.082L465.396 720.103Z" fill="#3B3B3B"/>
<path id="Rectangle 9 (Stroke)_15" d="M474.961 711.827L478.401 713.869L471.764 725.047L468.324 723.005L474.961 711.827ZM471.415 723.677L477.031 714.218L475.311 713.197L469.695 722.656L471.415 723.677Z" fill="#3B3B3B"/>
</g>
<g id="TRACK_16">
<path id="Rectangle 1 (Stroke)_16" d="M418.893 722.806L479.769 726.698L479.195 735.679L418.319 731.788L418.893 722.806ZM478.261 734.618L478.707 727.632L419.828 723.868L419.381 730.854L478.261 734.618Z" fill="#3B3B3B"/>
<path id="Rectangle 2 (Stroke)_16" d="M422.015 721.002L426.007 721.257L425.177 734.231L421.186 733.975L422.015 721.002ZM424.243 733.169L424.945 722.191L422.949 722.064L422.247 733.041L424.243 733.169Z" fill="#3B3B3B"/>
<path id="Rectangle 3 (Stroke)_16" d="M429.001 721.448L432.992 721.704L432.163 734.677L428.171 734.422L429.001 721.448ZM431.229 733.615L431.931 722.638L429.935 722.51L429.233 733.488L431.229 733.615Z" fill="#3B3B3B"/>
<path id="Rectangle 4 (Stroke)_16" d="M434.988 721.831L438.98 722.086L438.151 735.06L434.159 734.805L434.988 721.831ZM437.217 733.998L437.918 723.021L435.923 722.893L435.221 733.871L437.217 733.998Z" fill="#3B3B3B"/>
<path id="Rectangle 5 (Stroke)_16" d="M441.974 722.278L445.966 722.533L445.137 735.506L441.145 735.251L441.974 722.278ZM444.202 734.445L444.904 723.467L442.908 723.339L442.207 734.317L444.202 734.445Z" fill="#3B3B3B"/>
<path id="Rectangle 6 (Stroke)_16" d="M447.962 722.66L451.954 722.916L451.124 735.889L447.133 735.634L447.962 722.66ZM450.19 734.827L450.892 723.85L448.896 723.722L448.194 734.7L450.19 734.827Z" fill="#3B3B3B"/>
<path id="Rectangle 7 (Stroke)_16" d="M454.948 723.107L458.939 723.362L458.11 736.336L454.118 736.081L454.948 723.107ZM457.176 735.274L457.878 724.296L455.882 724.169L455.18 735.146L457.176 735.274Z" fill="#3B3B3B"/>
<path id="Rectangle 8 (Stroke)_16" d="M460.935 723.49L464.927 723.745L464.098 736.718L460.106 736.463L460.935 723.49ZM463.164 735.657L463.865 724.679L461.87 724.552L461.168 735.529L463.164 735.657Z" fill="#3B3B3B"/>
<path id="Rectangle 9 (Stroke)_16" d="M467.921 723.936L471.913 724.191L471.084 737.165L467.092 736.91L467.921 723.936ZM470.15 736.103L470.851 725.126L468.855 724.998L468.154 735.976L470.15 736.103Z" fill="#3B3B3B"/>
</g>
<g id="TRACK_17">
<path id="Rectangle 1 (Stroke)_17" d="M866.192 685.811V624.811H857.192V685.811H866.192ZM858.192 625.811H865.192V684.811H858.192V625.811Z" fill="#3B3B3B"/>
<path id="Rectangle 2 (Stroke)_17" d="M868.192 682.811V678.811H855.192V682.811H868.192ZM856.192 679.811H867.192V681.811H856.192V679.811Z" fill="#3B3B3B"/>
<path id="Rectangle 3 (Stroke)_17" d="M868.192 675.811V671.811H855.192V675.811H868.192ZM856.192 672.811H867.192V674.811H856.192V672.811Z" fill="#3B3B3B"/>
<path id="Rectangle 4 (Stroke)_17" d="M868.192 669.811V665.811H855.192V669.811H868.192ZM856.192 666.811H867.192V668.811H856.192V666.811Z" fill="#3B3B3B"/>
<path id="Rectangle 5 (Stroke)_17" d="M868.192 662.811V658.811H855.192V662.811H868.192ZM856.192 659.811H867.192V661.811H856.192V659.811Z" fill="#3B3B3B"/>
<path id="Rectangle 6 (Stroke)_17" d="M868.192 656.811V652.811H855.192V656.811H868.192ZM856.192 653.811H867.192V655.811H856.192V653.811Z" fill="#3B3B3B"/>
<path id="Rectangle 7 (Stroke)_17" d="M868.192 649.811V645.811H855.192V649.811H868.192ZM856.192 646.811H867.192V648.811H856.192V646.811Z" fill="#3B3B3B"/>
<path id="Rectangle 8 (Stroke)_17" d="M868.192 643.811V639.811H855.192V643.811H868.192ZM856.192 640.811H867.192V642.811H856.192V640.811Z" fill="#3B3B3B"/>
<path id="Rectangle 9 (Stroke)_17" d="M868.192 636.811V632.811H855.192V636.811H868.192ZM856.192 633.811H867.192V635.811H856.192V633.811Z" fill="#3B3B3B"/>
</g>
</g>
</g>
</svg>
